<?xml version="1.0" encoding="UTF-8" standalone="no"?>
<svg
   viewBox="0 0 512 512"
   style="height: 512px; width: 512px;"
   version="1.1"
   id="svg2"
   sodipodi:docname="team-delta-reversed.svg"
   inkscape:version="1.4.2 (f4327f4, 2025-05-13)"
   xmlns:inkscape="http://www.inkscape.org/namespaces/inkscape"
   xmlns:sodipodi="http://sodipodi.sourceforge.net/DTD/sodipodi-0.dtd"
   xmlns="http://www.w3.org/2000/svg"
   xmlns:svg="http://www.w3.org/2000/svg">
  <defs
     id="defs2" />
  <sodipodi:namedview
     id="namedview2"
     pagecolor="#505050"
     bordercolor="#ffffff"
     borderopacity="1"
     inkscape:showpageshadow="0"
     inkscape:pageopacity="0"
     inkscape:pagecheckerboard="1"
     inkscape:deskcolor="#505050"
     inkscape:zoom="1.5917969"
     inkscape:cx="215.16564"
     inkscape:cy="313.16809"
     inkscape:window-width="1920"
     inkscape:window-height="1017"
     inkscape:window-x="-8"
     inkscape:window-y="-8"
     inkscape:window-maximized="1"
     inkscape:current-layer="layer2" />
  <path
     d="M 0,0 H 512 V 512 H 0 Z"
     fill="#000000"
     fill-opacity="1"
     id="path1"
     style="display:none" />
  <g
     class=""
     id="g2"
     style="display:none">
    <path
       d="M 176,80 39.36,247 h 77.74 l 58.9,-103 32,48 v -48 z m 160,0 -32,64 v 48 l 32,-48 58.9,103 h 77.7 z M 25,265 V 439 H 219.2 L 256,383.8 292.8,439 H 487 V 265 Z m 23,23 h 176 v 64 l -32,64 H 48 Z m 240,0 H 464 V 416 H 320 l -32,-64 z"
       fill="#ffffff"
       fill-opacity="1"
       id="path2" />
  </g>
  <g
     inkscape:groupmode="layer"
     id="layer1"
     inkscape:label="Triangle">
    <path
       style="fill:#ffffff;fill-opacity:1;stroke:#000000;stroke-width:21.8158;stroke-linejoin:round;stroke-dasharray:none;stroke-opacity:1"
       d="M 256,57.739783 10.907062,454.25923 H 501.09294 Z"
       id="path3"
       sodipodi:nodetypes="cccc" />
  </g>
  <g
     inkscape:groupmode="layer"
     id="layer2"
     inkscape:label="Glasses">
    <path
       d="m 212.00075,171.50332 -75.15069,119.22786 h 42.75625 l 32.39444,-73.53577 17.5997,34.26911 v -34.26911 z m 87.99849,0 -17.5997,45.69209 v 34.26911 l 17.5997,-34.26911 32.39444,73.53577 h 42.73427 z M 128.95218,303.58209 v 124.22545 h 106.80816 l 20.23965,-39.40946 20.23966,39.40946 H 383.04782 V 303.58209 Z m 12.64977,16.42063 h 96.79835 v 45.6921 l -17.59969,45.69214 h -79.19866 z m 131.99774,0 h 96.79833 v 91.38424 h -79.19864 l -17.59969,-45.69214 z"
       fill="#ffffff"
       fill-opacity="1"
       id="path2-8"
       style="stroke-width:0.626627;fill:#000000;fill-opacity:1" />
  </g>
</svg>
